<svg xmlns="http://www.w3.org/2000/svg"  viewBox="0 0 40 40" width="40px" height="40px"><path fill="#fff" d="M27.5 11A1.5 1.5 0 1 0 27.5 14A1.5 1.5 0 1 0 27.5 11Z"/><path fill="none" stroke="#fff" stroke-miterlimit="10" stroke-width="2" d="M20 14A6 6 0 1 0 20 26A6 6 0 1 0 20 14Z"/><path fill="none" stroke="#fff" stroke-miterlimit="10" stroke-width="2" d="M33,14.5c0-4.142-3.358-7.5-7.5-7.5 c-2.176,0-8.824,0-11,0C10.358,7,7,10.358,7,14.5c0,2.176,0,8.824,0,11c0,4.142,3.358,7.5,7.5,7.5c2.176,0,8.824,0,11,0 c4.142,0,7.5-3.358,7.5-7.5C33,23.324,33,16.676,33,14.5z"/></svg>